<svg width="53" height="61" viewBox="0 0 53 61" fill="none" xmlns="http://www.w3.org/2000/svg">
<path d="M18.45 48.25C15.7833 48.25 13.4 47.5333 11.3 46.1C9.23333 44.6333 7.61667 42.5667 6.45 39.9C5.31667 37.2333 4.75 34.1 4.75 30.5C4.75 26.9 5.31667 23.7667 6.45 21.1C7.61667 18.4333 9.23333 16.3833 11.3 14.95C13.4 13.4833 15.7833 12.75 18.45 12.75C21.1167 12.75 23.4833 13.4833 25.55 14.95C27.65 16.3833 29.2667 18.4333 30.4 21.1C31.5667 23.7667 32.15 26.9 32.15 30.5C32.15 34.1 31.5667 37.2333 30.4 39.9C29.2667 42.5667 27.65 44.6333 25.55 46.1C23.4833 47.5333 21.1167 48.25 18.45 48.25ZM18.45 45.9C20.65 45.9 22.5833 45.3 24.25 44.1C25.95 42.8667 27.2667 41.1 28.2 38.8C29.1333 36.4667 29.6 33.7 29.6 30.5C29.6 27.3 29.1333 24.55 28.2 22.25C27.2667 19.9167 25.95 18.15 24.25 16.95C22.5833 15.7167 20.65 15.1 18.45 15.1C16.25 15.1 14.3 15.7167 12.6 16.95C10.9333 18.15 9.63333 19.9167 8.7 22.25C7.76667 24.55 7.3 27.3 7.3 30.5C7.3 33.7 7.76667 36.4667 8.7 38.8C9.63333 41.1 10.9333 42.8667 12.6 44.1C14.3 45.3 16.25 45.9 18.45 45.9ZM46.4113 13V48H43.8613V15.3H35.3113V13H46.4113Z" fill="#FED100"/>
<path d="M16.45 48.25C13.7833 48.25 11.4 47.5333 9.3 46.1C7.23333 44.6333 5.61667 42.5667 4.45 39.9C3.31667 37.2333 2.75 34.1 2.75 30.5C2.75 26.9 3.31667 23.7667 4.45 21.1C5.61667 18.4333 7.23333 16.3833 9.3 14.95C11.4 13.4833 13.7833 12.75 16.45 12.75C19.1167 12.75 21.4833 13.4833 23.55 14.95C25.65 16.3833 27.2667 18.4333 28.4 21.1C29.5667 23.7667 30.15 26.9 30.15 30.5C30.15 34.1 29.5667 37.2333 28.4 39.9C27.2667 42.5667 25.65 44.6333 23.55 46.1C21.4833 47.5333 19.1167 48.25 16.45 48.25ZM16.45 45.9C18.65 45.9 20.5833 45.3 22.25 44.1C23.95 42.8667 25.2667 41.1 26.2 38.8C27.1333 36.4667 27.6 33.7 27.6 30.5C27.6 27.3 27.1333 24.55 26.2 22.25C25.2667 19.9167 23.95 18.15 22.25 16.95C20.5833 15.7167 18.65 15.1 16.45 15.1C14.25 15.1 12.3 15.7167 10.6 16.95C8.93333 18.15 7.63333 19.9167 6.7 22.25C5.76667 24.55 5.3 27.3 5.3 30.5C5.3 33.7 5.76667 36.4667 6.7 38.8C7.63333 41.1 8.93333 42.8667 10.6 44.1C12.3 45.3 14.25 45.9 16.45 45.9ZM44.4113 13V48H41.8613V15.3H33.3113V13H44.4113Z" fill="#333333"/>
</svg>
