<svg width="63" height="61" viewBox="0 0 63 61" fill="none" xmlns="http://www.w3.org/2000/svg">
<path d="M18.45 48.25C15.7833 48.25 13.4 47.5333 11.3 46.1C9.23333 44.6333 7.61667 42.5667 6.45 39.9C5.31667 37.2333 4.75 34.1 4.75 30.5C4.75 26.9 5.31667 23.7667 6.45 21.1C7.61667 18.4333 9.23333 16.3833 11.3 14.95C13.4 13.4833 15.7833 12.75 18.45 12.75C21.1167 12.75 23.4833 13.4833 25.55 14.95C27.65 16.3833 29.2667 18.4333 30.4 21.1C31.5667 23.7667 32.15 26.9 32.15 30.5C32.15 34.1 31.5667 37.2333 30.4 39.9C29.2667 42.5667 27.65 44.6333 25.55 46.1C23.4833 47.5333 21.1167 48.25 18.45 48.25ZM18.45 45.9C20.65 45.9 22.5833 45.3 24.25 44.1C25.95 42.8667 27.2667 41.1 28.2 38.8C29.1333 36.4667 29.6 33.7 29.6 30.5C29.6 27.3 29.1333 24.55 28.2 22.25C27.2667 19.9167 25.95 18.15 24.25 16.95C22.5833 15.7167 20.65 15.1 18.45 15.1C16.25 15.1 14.3 15.7167 12.6 16.95C10.9333 18.15 9.63333 19.9167 8.7 22.25C7.76667 24.55 7.3 27.3 7.3 30.5C7.3 33.7 7.76667 36.4667 8.7 38.8C9.63333 41.1 10.9333 42.8667 12.6 44.1C14.3 45.3 16.25 45.9 18.45 45.9ZM47.8219 28.25C51.6885 28.35 54.6219 29.3 56.6219 31.1C58.6552 32.8667 59.6719 35.2167 59.6719 38.15C59.6719 40.1167 59.2052 41.8667 58.2719 43.4C57.3385 44.9 55.9385 46.0833 54.0719 46.95C52.2385 47.8167 50.0219 48.25 47.4219 48.25C44.8885 48.25 42.5052 47.8333 40.2719 47C38.0385 46.1333 36.3052 44.9833 35.0719 43.55L36.3719 41.6C37.5052 42.8667 39.0385 43.9 40.9719 44.7C42.9385 45.5 45.0885 45.9 47.4219 45.9C50.5219 45.9 52.9052 45.2167 54.5719 43.85C56.2385 42.45 57.0719 40.55 57.0719 38.15C57.0719 35.7167 56.2219 33.8167 54.5219 32.45C52.8219 31.0833 50.2719 30.4 46.8719 30.4H44.6719V28.55L55.0219 15.3H36.3719V13H58.3219V14.8L47.8219 28.25Z" fill="#FED100"/>
<path d="M16.45 48.25C13.7833 48.25 11.4 47.5333 9.3 46.1C7.23333 44.6333 5.61667 42.5667 4.45 39.9C3.31667 37.2333 2.75 34.1 2.75 30.5C2.75 26.9 3.31667 23.7667 4.45 21.1C5.61667 18.4333 7.23333 16.3833 9.3 14.95C11.4 13.4833 13.7833 12.75 16.45 12.75C19.1167 12.75 21.4833 13.4833 23.55 14.95C25.65 16.3833 27.2667 18.4333 28.4 21.1C29.5667 23.7667 30.15 26.9 30.15 30.5C30.15 34.1 29.5667 37.2333 28.4 39.9C27.2667 42.5667 25.65 44.6333 23.55 46.1C21.4833 47.5333 19.1167 48.25 16.45 48.25ZM16.45 45.9C18.65 45.9 20.5833 45.3 22.25 44.1C23.95 42.8667 25.2667 41.1 26.2 38.8C27.1333 36.4667 27.6 33.7 27.6 30.5C27.6 27.3 27.1333 24.55 26.2 22.25C25.2667 19.9167 23.95 18.15 22.25 16.95C20.5833 15.7167 18.65 15.1 16.45 15.1C14.25 15.1 12.3 15.7167 10.6 16.95C8.93333 18.15 7.63333 19.9167 6.7 22.25C5.76667 24.55 5.3 27.3 5.3 30.5C5.3 33.7 5.76667 36.4667 6.7 38.8C7.63333 41.1 8.93333 42.8667 10.6 44.1C12.3 45.3 14.25 45.9 16.45 45.9ZM45.8219 28.25C49.6885 28.35 52.6219 29.3 54.6219 31.1C56.6552 32.8667 57.6719 35.2167 57.6719 38.15C57.6719 40.1167 57.2052 41.8667 56.2719 43.4C55.3385 44.9 53.9385 46.0833 52.0719 46.95C50.2385 47.8167 48.0219 48.25 45.4219 48.25C42.8885 48.25 40.5052 47.8333 38.2719 47C36.0385 46.1333 34.3052 44.9833 33.0719 43.55L34.3719 41.6C35.5052 42.8667 37.0385 43.9 38.9719 44.7C40.9385 45.5 43.0885 45.9 45.4219 45.9C48.5219 45.9 50.9052 45.2167 52.5719 43.85C54.2385 42.45 55.0719 40.55 55.0719 38.15C55.0719 35.7167 54.2219 33.8167 52.5219 32.45C50.8219 31.0833 48.2719 30.4 44.8719 30.4H42.6719V28.55L53.0219 15.3H34.3719V13H56.3219V14.8L45.8219 28.25Z" fill="#333333"/>
</svg>
